<svg xmlns="http://www.w3.org/2000/svg" aria-hidden="true" style="position:absolute;width:0;height:0;overflow:hidden">
  <defs>
    <symbol id="arrow-top" viewBox="0 0 32 32">
      <path d="M3.76 25.143 0 21.664 16 6.858l16 14.806-3.76 3.479L16 13.841 3.76 25.143z"/>
    </symbol>
    <symbol id="arrow-down" viewBox="0 0 32 32">
      <path d="M3.76 6.857 0 10.336l16 14.806 16-14.806-3.76-3.479L16 18.159 3.76 6.857z"/>
    </symbol>
    <symbol id="book-open" viewBox="0 0 32 32">
      <path stroke-linecap="round" stroke-linejoin="round" stroke-width="1.778" d="M2.667 4h8A5.332 5.332 0 0 1 16 9.333V28a4.003 4.003 0 0 0-4-4H2.667V4z"/>
      <path stroke-linecap="round" stroke-linejoin="round" stroke-width="1.778" d="M29.333 4h-8A5.334 5.334 0 0 0 16 9.333V28a4.003 4.003 0 0 1 4-4h9.333V4z"/>
    </symbol>
    <symbol id="calendar" viewBox="0 0 32 32">
      <path d="M23.407 4.444h5.926a1.478 1.478 0 0 1 1.481 1.482V29.63a1.478 1.478 0 0 1-1.481 1.481H2.666a1.482 1.482 0 0 1-1.482-1.481V5.926a1.482 1.482 0 0 1 1.482-1.482h5.926V1.481h2.963v2.963h8.889V1.481h2.963v2.963zm4.445 11.852H4.148v11.852h23.704V16.296zm-7.408-8.889h-8.889v2.963H8.592V7.407H4.148v5.926h23.704V7.407h-4.444v2.963h-2.963V7.407zM7.111 19.259h2.963v2.963H7.111v-2.963zm7.407 0h2.963v2.963h-2.963v-2.963zm7.408 0h2.963v2.963h-2.963v-2.963z"/>
    </symbol>
    <symbol id="heart-empty" viewBox="0 0 32 32">
      <path stroke-linecap="round" stroke-linejoin="round" stroke-width="2" d="M9.333 4c-3.681 0-6.667 2.955-6.667 6.6 0 2.943 1.167 9.927 12.651 16.987a1.316 1.316 0 0 0 1.366 0c11.484-7.06 12.651-14.044 12.651-16.987 0-3.645-2.985-6.6-6.667-6.6S16 8 16 8s-2.985-4-6.667-4z" />
    </symbol>
    <symbol id="heart-fill" viewBox="0 0 32 32">
      <path d="M8.381 2.286C4.174 2.286.762 5.663.762 9.829c0 3.363 1.333 11.345 14.458 19.413a1.501 1.501 0 0 0 1.56 0c13.125-8.069 14.458-16.05 14.458-19.413 0-4.166-3.412-7.543-7.619-7.543S16 6.857 16 6.857s-3.412-4.571-7.619-4.571z"/>
    </symbol>
    <symbol id="heart" viewBox="0 0 32 32">
      <path stroke-linecap="round" stroke-linejoin="round" stroke-width="1.778" d="M27.787 6.146a7.345 7.345 0 0 0-5.187-2.15 7.33 7.33 0 0 0-5.187 2.15L16 7.559l-1.413-1.413a7.333 7.333 0 0 0-10.374 0 7.333 7.333 0 0 0 0 10.374L16 28.307 27.787 16.52a7.345 7.345 0 0 0 2.15-5.187 7.33 7.33 0 0 0-2.15-5.187v0z"/>
    </symbol>
    <symbol id="home" viewBox="0 0 32 32">
      <path stroke-linecap="round" stroke-linejoin="round" stroke-width="1.778" d="m4 12 12-9.333L28 12v14.667a2.668 2.668 0 0 1-2.667 2.667H6.666a2.668 2.668 0 0 1-2.667-2.667V12z"/>
      <path stroke-linecap="round" stroke-linejoin="round" stroke-width="1.778" d="M12 29.333V16h8v13.333"/>
    </symbol>
    <symbol id="menu" viewBox="0 0 32 32">
      <path stroke-linecap="round" stroke-linejoin="round" stroke-width="2.667" d="M4 16h24M4 8h24M4 24h24"/>
    </symbol>
    <symbol id="moon" viewBox="0 0 32 32">
      <path fill="none" stroke-linecap="round" stroke-linejoin="round" stroke-width="2.526" d="M29.263 17.164A13.262 13.262 0 0 1 3.111 18.83 13.263 13.263 0 0 1 14.836 2.737a10.318 10.318 0 0 0 1.001 13.426 10.317 10.317 0 0 0 13.426 1.001v0z"/>
    </symbol>
    <symbol id="search" viewBox="0 0 32 32">
      <path d="M13.804 25.882c2.784-.001 5.488-.886 7.682-2.515l6.896 6.551 2.218-2.107-6.896-6.551c1.716-2.084 2.649-4.653 2.649-7.299 0-6.573-5.63-11.922-12.549-11.922S1.255 7.387 1.255 13.961c0 6.573 5.63 11.922 12.549 11.922zm0-20.863c5.191 0 9.412 4.01 9.412 8.941s-4.221 8.941-9.412 8.941c-5.191 0-9.412-4.01-9.412-8.941s4.221-8.941 9.412-8.941z"/>
    </symbol>
    <symbol id="sun" viewBox="0 0 32 32">
      <path fill="none" stroke-linecap="round" stroke-linejoin="round" stroke-width="2.286" d="M16 1.778v2.586m0 23.272v2.586M5.941 5.941l1.836 1.836m16.446 16.446 1.836 1.836M1.778 16h2.586m23.272 0h2.586M5.941 26.059l1.836-1.836M24.223 7.777l1.836-1.836M22.465 16a6.465 6.465 0 1 1-12.93 0 6.465 6.465 0 0 1 12.93 0z"/>
    </symbol>
    <symbol id="icon-location" viewBox="0 0 32 32">
<path fill="#fff" style="fill: var(--color1, #fff)" d="M16 2c-2.916 0.003-5.712 1.163-7.774 3.226s-3.222 4.858-3.226 7.774c-0.003 2.383 0.775 4.702 2.216 6.6 0 0 0.3 0.395 0.349 0.452l8.435 9.948 8.439-9.953c0.044-0.053 0.345-0.447 0.345-0.447l0.001-0.003c1.44-1.897 2.218-4.215 2.215-6.597-0.003-2.916-1.163-5.712-3.226-7.774s-4.858-3.222-7.774-3.226zM16 17c-0.791 0-1.564-0.235-2.222-0.674s-1.171-1.064-1.473-1.795c-0.303-0.731-0.382-1.535-0.228-2.311s0.535-1.489 1.095-2.048 1.272-0.94 2.048-1.095c0.776-0.154 1.58-0.075 2.311 0.228s1.356 0.815 1.795 1.473c0.44 0.658 0.674 1.431 0.674 2.222-0.001 1.060-0.423 2.077-1.173 2.827s-1.767 1.172-2.827 1.173z"></path>
</symbol>
    <symbol id="x" viewBox="0 0 32 32">
      <path stroke-linecap="round" stroke-linejoin="round" stroke-width="2.667" d="M24 8 8 24M8 8l16 16"/>
    </symbol>
    <symbol id="arrow-right" width="8" height="14" fill="none">
  <path stroke-linecap="round" stroke-linejoin="round" stroke-width="2" d="m1 13 6-6-6-6">
  </path>
    </symbol>
    <symbol id="arrow-done" viewBox="0 0 32 32">
      <path d="M28.78 6.39c-0.277 0.008-0.54 0.124-0.733 0.323l-16.313 16.313-6.713-6.713c-0.098-0.102-0.216-0.184-0.346-0.24s-0.27-0.086-0.412-0.088c-0.142-0.001-0.283 0.025-0.414 0.079s-0.251 0.133-0.351 0.233c-0.1 0.1-0.18 0.22-0.233 0.351s-0.081 0.272-0.079 0.414c0.001 0.142 0.031 0.282 0.087 0.412s0.138 0.248 0.24 0.346l7.467 7.467c0.2 0.2 0.471 0.312 0.754 0.312s0.554-0.112 0.754-0.312l17.067-17.067c0.154-0.15 0.259-0.343 0.302-0.553s0.021-0.429-0.063-0.627c-0.084-0.198-0.225-0.366-0.406-0.482s-0.393-0.175-0.607-0.168v0z"></path>
    </symbol>

    <symbol id="calendar" viewBox="0 0 32 32">
      <path d="M23.407 4.444h5.926a1.478 1.478 0 0 1 1.481 1.482V29.63a1.478 1.478 0 0 1-1.481 1.481H2.666a1.482 1.482 0 0 1-1.482-1.481V5.926a1.482 1.482 0 0 1 1.482-1.482h5.926V1.481h2.963v2.963h8.889V1.481h2.963v2.963zm4.445 11.852H4.148v11.852h23.704V16.296zm-7.408-8.889h-8.889v2.963H8.592V7.407H4.148v5.926h23.704V7.407h-4.444v2.963h-2.963V7.407zM7.111 19.259h2.963v2.963H7.111v-2.963zm7.407 0h2.963v2.963h-2.963v-2.963zm7.408 0h2.963v2.963h-2.963v-2.963z"/>
    </symbol>
    <symbol id="calendar-arrow-next" viewBox="0 0 16 32">
      <path d="M16 16c-0.016-0.596-0.219-1.107-0.643-1.567l-12.192-12.965c-0.36-0.375-0.784-0.579-1.301-0.579-1.050 0-1.865 0.886-1.865 2.027 0 0.545 0.204 1.056 0.564 1.448l10.97 11.636-10.97 11.636c-0.36 0.392-0.564 0.886-0.564 1.448 0 1.142 0.815 2.027 1.865 2.027 0.501 0 0.94-0.204 1.301-0.579l12.192-12.982c0.439-0.443 0.642-0.954 0.642-1.55z"></path>
    </symbol>
    <symbol id="calendar-arrow-prev" viewBox="0 0 16 32">  
      <path d="M0 16c0 0.596 0.204 1.107 0.642 1.55l12.192 12.982c0.345 0.375 0.784 0.579 1.301 0.579 1.034 0 1.865-0.886 1.865-2.027 0-0.562-0.219-1.056-0.564-1.448l-10.985-11.636 10.985-11.636c0.345-0.392 0.564-0.903 0.564-1.448 0-1.141-0.831-2.027-1.865-2.027-0.517 0-0.956 0.204-1.301 0.579l-12.192 12.965c-0.439 0.46-0.642 0.971-0.642 1.567z"></path>
    </symbol>
    <symbol id="calendar-arrow-down" viewBox="0 0 53 32">
      <path d="M6.267 0l-6.267 6.089 26.667 25.911 26.667-25.911-6.267-6.089-20.4 19.779-20.4-19.779z"></path>
    </symbol>
    <symbol id="calendar-arrow-up" viewBox="0 0 53 32">
      <path d="M6.267 32l-6.267-6.089 26.667-25.911 26.667 25.911-6.267 6.089-20.4-19.779-20.4 19.779z"></path>
    </symbol>
	<symbol id="icon-button-up-icon" viewBox="0 0 27 32">
<path d="M6.657 7.145l-6.605 7.093 0.13 0.018c0.073 0.008 1.893 0.015 4.048 0.018l3.92 0.002 0.005 0.455 0.008 0.457 10.287 0.012v-0.925h4.012c2.207 0 4.012-0.008 4.012-0.015 0-0.020 0.198 0.193-3.363-3.635-1.72-1.85-4.56-4.905-6.31-6.787-2.955-3.178-3.527-3.79-3.537-3.785 0 0-2.975 3.192-6.607 7.093z"></path>
<path d="M10.745 15.367c1.422 0.005 3.74 0.005 5.15 0 1.413-0.002 0.25-0.005-2.582-0.005s-3.988 0.002-2.567 0.005z"></path>
<path d="M8.162 15.482c-0.008 0.018-0.010 0.328-0.008 0.693l0.008 0.663 10.287 0.012v-1.4h-5.137c-4.122 0-5.143 0.008-5.15 0.033z"></path>
<path d="M10.832 17.067c1.4 0.005 3.685 0.005 5.075 0 1.392-0.003 0.247-0.005-2.545-0.005-2.79 0-3.93 0.003-2.53 0.005z"></path>
<path d="M8.168 17.242c-0.010 0.008-0.018 0.29-0.018 0.625v0.608h10.3l-0.005-0.62-0.008-0.617-5.128-0.008c-2.82-0.003-5.135 0.003-5.143 0.012z"></path>
<path d="M8.238 18.6c0.117 0.030 10.188 0.030 10.188 0 0-0.017-1.725-0.025-5.13-0.023-2.822 0.003-5.098 0.012-5.058 0.023z"></path>
<path d="M8.168 18.892c-0.010 0.008-0.018 0.277-0.018 0.595v0.58l0.17 0.015c0.215 0.023 9.998 0.023 10.075 0.003l0.055-0.015-0.005-0.593-0.008-0.59-5.128-0.008c-2.82-0.003-5.135 0.003-5.143 0.012z"></path>
<path d="M8.168 20.468c-0.010 0.008-0.018 0.255-0.018 0.547v0.532l0.133 0.015c0.070 0.008 2.385 0.012 5.143 0.008l5.012-0.008v-1.1l-5.128-0.008c-2.82-0.003-5.135 0.003-5.143 0.012z"></path>
<path d="M8.168 22.017c-0.010 0.008-0.018 0.233-0.018 0.497v0.48l0.158 0.017c0.085 0.008 2.4 0.012 5.143 0.008l4.987-0.008v-1l-5.128-0.008c-2.82-0.003-5.135 0.003-5.143 0.012z"></path>
<path d="M8.16 23.608c-0.005 0.017-0.008 0.223-0.005 0.455l0.008 0.425h10.275v-0.9l-5.133-0.008c-4.17-0.005-5.135 0-5.145 0.027z"></path>
<path d="M8.16 25.157c-0.005 0.017-0.008 0.205-0.005 0.418l0.008 0.387 10.287 0.012-0.005-0.418-0.008-0.42-5.133-0.005c-4.17-0.005-5.135-0.003-5.145 0.025z"></path>
<path d="M8.16 26.733c-0.005 0.017-0.008 0.177-0.005 0.358l0.008 0.323 10.29 0.012-0.008-0.355-0.008-0.358-5.133-0.008c-4.203-0.005-5.135 0-5.145 0.027z"></path>
<path d="M8.155 28.58l0.008 0.308 10.287 0.012v-0.625h-10.303l0.008 0.305z"></path>
<path d="M8.16 29.858c-0.008 0.020-0.008 0.14-0.005 0.27l0.008 0.235 10.29 0.012-0.008-0.267-0.008-0.27-5.133-0.008c-4.245-0.005-5.133 0-5.145 0.027z"></path>
<path d="M8.155 31.605l0.008 0.207 10.287 0.012v-0.425h-10.303l0.008 0.205z"></path>
</symbol>
  </defs>
</svg>


